<svg width="24" height="24" viewBox="0 0 24 24" fill="none" xmlns="http://www.w3.org/2000/svg">
<path d="M7.925 20.5001H16.075L17.275 15.7501H6.725L7.925 20.5001V20.5001ZM7.925 22.0001C7.59167 22.0001 7.2875 21.8959 7.0125 21.6876C6.7375 21.4792 6.55833 21.2084 6.475 20.8751L5.175 15.7501H18.825L17.525 20.8751C17.4417 21.2084 17.2625 21.4792 16.9875 21.6876C16.7125 21.8959 16.4083 22.0001 16.075 22.0001H7.925ZM4.5 14.2501H19.5V11.7501H4.5V14.2501ZM6.55 2.05005C7.91667 2.28338 9.15 2.98338 10.25 4.15005C11.35 5.31672 11.9333 6.59172 12 7.97505C12.0833 6.62505 12.675 5.36255 13.775 4.18755C14.875 3.01255 16.1 2.30838 17.45 2.07505C17.5833 2.04172 17.7042 2.07922 17.8125 2.18755C17.9208 2.29588 17.9583 2.41672 17.925 2.55005C17.725 3.80005 17.1167 4.94172 16.1 5.97505C15.0833 7.00838 13.9667 7.64172 12.75 7.87505V10.2501H20.25C20.4667 10.2501 20.6458 10.3209 20.7875 10.4626C20.9292 10.6042 21 10.7834 21 11.0001V14.2501C21 14.6667 20.8542 15.0209 20.5625 15.3126C20.2708 15.6042 19.9167 15.7501 19.5 15.7501H4.5C4.08333 15.7501 3.72917 15.6042 3.4375 15.3126C3.14583 15.0209 3 14.6667 3 14.2501V11.0001C3 10.7834 3.07083 10.6042 3.2125 10.4626C3.35417 10.3209 3.53333 10.2501 3.75 10.2501H11.25V7.87505C10.0333 7.64172 8.91667 7.00838 7.9 5.97505C6.88333 4.94172 6.275 3.80005 6.075 2.55005C6.04167 2.41672 6.07917 2.29172 6.1875 2.17505C6.29583 2.05838 6.41667 2.01672 6.55 2.05005V2.05005Z" fill="url(#paint0_linear_105_252)"/>
<defs>
<linearGradient id="paint0_linear_105_252" x1="12" y1="2.03894" x2="12" y2="22.0001" gradientUnits="userSpaceOnUse">
<stop stop-color="#3E9A2F"/>
<stop offset="1" stop-color="#C0ED9D"/>
</linearGradient>
</defs>
</svg>
