<svg width="199" height="32" viewBox="0 0 199 32" fill="none" xmlns="http://www.w3.org/2000/svg">
<g filter="url(#filter0_d_72_27)">
<path d="M22.68 0.919999V6.4H15.24V29H8.4V6.4H0.96V0.919999H22.68ZM32.9528 6.4V12.08H42.1128V17.36H32.9528V23.52H43.3128V29H26.1128V0.919999H43.3128V6.4H32.9528ZM62.0734 29L56.2334 18.4H54.5934V29H47.7534V0.919999H59.2334C61.4468 0.919999 63.3268 1.30667 64.8734 2.08C66.4468 2.85333 67.6201 3.92 68.3934 5.28C69.1668 6.61333 69.5534 8.10667 69.5534 9.76C69.5534 11.6267 69.0201 13.2933 67.9534 14.76C66.9134 16.2267 65.3668 17.2667 63.3134 17.88L69.7934 29H62.0734ZM54.5934 13.56H58.8334C60.0868 13.56 61.0201 13.2533 61.6334 12.64C62.2734 12.0267 62.5934 11.16 62.5934 10.04C62.5934 8.97333 62.2734 8.13333 61.6334 7.52C61.0201 6.90667 60.0868 6.6 58.8334 6.6H54.5934V13.56ZM80.6872 6.4V12.08H89.8472V17.36H80.6872V23.52H91.0472V29H73.8472V0.919999H91.0472V6.4H80.6872ZM105.648 29.28C103.594 29.28 101.754 28.9467 100.128 28.28C98.5011 27.6133 97.1945 26.6267 96.2078 25.32C95.2478 24.0133 94.7411 22.44 94.6878 20.6H101.968C102.074 21.64 102.434 22.44 103.048 23C103.661 23.5333 104.461 23.8 105.448 23.8C106.461 23.8 107.261 23.5733 107.848 23.12C108.434 22.64 108.728 21.9867 108.728 21.16C108.728 20.4667 108.488 19.8933 108.008 19.44C107.554 18.9867 106.981 18.6133 106.288 18.32C105.621 18.0267 104.661 17.6933 103.408 17.32C101.594 16.76 100.114 16.2 98.9678 15.64C97.8211 15.08 96.8345 14.2533 96.0078 13.16C95.1811 12.0667 94.7678 10.64 94.7678 8.88C94.7678 6.26667 95.7145 4.22667 97.6078 2.76C99.5011 1.26667 101.968 0.52 105.008 0.52C108.101 0.52 110.594 1.26667 112.488 2.76C114.381 4.22667 115.394 6.28 115.528 8.92H108.128C108.074 8.01333 107.741 7.30667 107.128 6.8C106.514 6.26667 105.728 6 104.768 6C103.941 6 103.274 6.22667 102.768 6.68C102.261 7.10666 102.008 7.73333 102.008 8.56C102.008 9.46667 102.434 10.1733 103.288 10.68C104.141 11.1867 105.474 11.7333 107.288 12.32C109.101 12.9333 110.568 13.52 111.688 14.08C112.834 14.64 113.821 15.4533 114.648 16.52C115.474 17.5867 115.888 18.96 115.888 20.64C115.888 22.24 115.474 23.6933 114.648 25C113.848 26.3067 112.674 27.3467 111.128 28.12C109.581 28.8933 107.754 29.28 105.648 29.28ZM135.414 23.72H144.374V29H128.574V0.919999H135.414V23.72ZM154.476 0.919999V29H147.636V0.919999H154.476ZM177.713 0.919999V6.4H166.273V12.32H174.833V17.64H166.273V29H159.433V0.919999H177.713ZM188.148 6.4V12.08H197.308V17.36H188.148V23.52H198.508V29H181.308V0.919999H198.508V6.4H188.148Z" fill="white"/>
</g>
<defs>
<filter id="filter0_d_72_27" x="0.960022" y="0.519989" width="197.548" height="30.76" filterUnits="userSpaceOnUse" color-interpolation-filters="sRGB">
<feFlood flood-opacity="0" result="BackgroundImageFix"/>
<feColorMatrix in="SourceAlpha" type="matrix" values="0 0 0 0 0 0 0 0 0 0 0 0 0 0 0 0 0 0 127 0" result="hardAlpha"/>
<feOffset dy="2"/>
<feComposite in2="hardAlpha" operator="out"/>
<feColorMatrix type="matrix" values="0 0 0 0 0.243137 0 0 0 0 0.603922 0 0 0 0 0.184314 0 0 0 1 0"/>
<feBlend mode="normal" in2="BackgroundImageFix" result="effect1_dropShadow_72_27"/>
<feBlend mode="normal" in="SourceGraphic" in2="effect1_dropShadow_72_27" result="shape"/>
</filter>
</defs>
</svg>
